<svg width="488" height="110" viewBox="0 0 488 110" fill="none" xmlns="http://www.w3.org/2000/svg">
<path d="M57.42 31.04C57.42 35.44 56.6867 39.07 55.22 41.93C53.7533 44.7167 51.1867 46.8433 47.52 48.31V48.53C52.14 49.7767 55.5133 52.0133 57.64 55.24C59.7667 58.4667 60.83 62.39 60.83 67.01C60.83 70.53 60.39 73.72 59.51 76.58C58.63 79.44 57.2 81.86 55.22 83.84C53.24 85.82 50.6367 87.36 47.41 88.46C44.2567 89.4867 40.3333 90 35.64 90H7.04V10.25H32.45C36.85 10.25 40.6267 10.8 43.78 11.9C46.9333 12.9267 49.5 14.3933 51.48 16.3C53.5333 18.1333 55.0367 20.3333 55.99 22.9C56.9433 25.3933 57.42 28.1067 57.42 31.04ZM23.54 76.36H34.65C38.0233 76.36 40.4433 75.59 41.91 74.05C43.3767 72.51 44.11 69.76 44.11 65.8C44.11 61.84 43.3767 59.1633 41.91 57.77C40.5167 56.3033 38.0967 55.57 34.65 55.57H23.54V76.36ZM23.54 43.14H33C36.4467 43.14 38.7933 42.37 40.04 40.83C41.36 39.29 42.02 36.7967 42.02 33.35C42.02 29.9767 41.36 27.63 40.04 26.31C38.72 24.99 36.3733 24.33 33 24.33H23.54V43.14ZM126.936 10.25V63.27C126.936 71.9233 124.479 78.7433 119.566 83.73C114.726 88.6433 107.759 91.1 98.6657 91.1C89.5724 91.1 82.5324 88.7167 77.5457 83.95C72.6324 79.11 70.1757 72.4733 70.1757 64.04V10.25H87.1157V64.15C87.1157 68.4767 88.179 71.5933 90.3057 73.5C92.4324 75.3333 95.219 76.25 98.6657 76.25C102.406 76.25 105.229 75.2967 107.136 73.39C109.116 71.41 110.106 68.33 110.106 64.15V10.25H126.936ZM156.311 10.25V75.26H183.701V90H139.921V10.25H156.311ZM203.547 90H186.497L210.147 10.25H229.287L252.937 90H235.667L231.377 73.28H207.727L203.547 90ZM210.807 60.74H228.297L219.607 25.98H219.387L210.807 60.74ZM300.926 90L283.326 57L277.276 65.58V90H260.556V10.25H277.276V47.32L298.726 10.25H317.756L294.216 45.56L319.626 90H300.926ZM390.686 9.15C397.432 9.15 402.896 10.7633 407.076 13.99C411.329 17.1433 414.482 21.36 416.536 26.64L405.096 31.7C403.922 28.5467 402.199 26.2367 399.926 24.77C397.726 23.23 395.196 22.46 392.336 22.46C389.036 22.46 386.689 23.1567 385.296 24.55C383.976 25.87 383.316 27.7033 383.316 30.05C383.316 32.25 384.122 34.12 385.736 35.66C387.422 37.2 389.512 38.6667 392.006 40.06C394.572 41.4533 397.286 42.92 400.146 44.46C403.079 45.9267 405.792 47.6867 408.286 49.74C410.852 51.7933 412.942 54.2867 414.556 57.22C416.242 60.1533 417.086 63.71 417.086 67.89C417.086 71.63 416.462 74.93 415.216 77.79C414.042 80.65 412.356 83.07 410.156 85.05C407.956 87.03 405.279 88.5333 402.126 89.56C398.972 90.5867 395.489 91.1 391.676 91.1C388.596 91.1 385.626 90.66 382.766 89.78C379.979 88.9 377.412 87.6533 375.066 86.04C372.719 84.3533 370.702 82.3367 369.016 79.99C367.329 77.57 366.119 74.8933 365.386 71.96L378.036 67.56C379.209 71.08 381.042 73.6833 383.536 75.37C386.102 77.0567 388.779 77.9 391.566 77.9C394.939 77.9 397.396 77.24 398.936 75.92C400.476 74.6 401.246 72.5833 401.246 69.87C401.246 67.3767 400.366 65.25 398.606 63.49C396.919 61.73 394.792 60.1167 392.226 58.65C389.732 57.1833 386.982 55.7167 383.976 54.25C380.969 52.7833 378.182 51.0233 375.616 48.97C373.122 46.9167 370.996 44.4967 369.236 41.71C367.549 38.85 366.706 35.2933 366.706 31.04C366.706 27.96 367.256 25.1 368.356 22.46C369.456 19.82 371.032 17.51 373.086 15.53C375.212 13.55 377.742 12.01 380.676 10.91C383.682 9.73666 387.019 9.15 390.686 9.15ZM481.965 10.25V63.27C481.965 71.9233 479.508 78.7433 474.595 83.73C469.755 88.6433 462.788 91.1 453.695 91.1C444.602 91.1 437.562 88.7167 432.575 83.95C427.662 79.11 425.205 72.4733 425.205 64.04V10.25H442.145V64.15C442.145 68.4767 443.208 71.5933 445.335 73.5C447.462 75.3333 450.248 76.25 453.695 76.25C457.435 76.25 460.258 75.2967 462.165 73.39C464.145 71.41 465.135 68.33 465.135 64.15V10.25H481.965Z" fill="#173EB7"/>
<rect x="339" y="94" width="15" height="36" transform="rotate(90 339 94)" fill="#173EB7"/>
</svg>
