<svg width="116" height="80" viewBox="0 0 116 80" fill="none" xmlns="http://www.w3.org/2000/svg">
<g clip-path="url(#clip0_369_54)">
<path fill-rule="evenodd" clip-rule="evenodd" d="M20.5925 52.6217L8.54603 40.6032C8.36296 40.42 8.26004 40.1716 8.26004 39.9128C8.26004 39.6541 8.36296 39.4057 8.54603 39.2225L21.3237 26.4682C22.4146 25.3794 23.0285 23.9004 23.0285 22.3596C23.0285 20.8187 22.4146 19.3398 21.3235 18.2507L3.93745 0.904412C3.79931 0.766097 3.61139 0.688202 3.41545 0.688202C3.0084 0.688202 2.67812 1.01768 2.67812 1.4242C2.67812 1.42652 2.67812 1.42925 2.67812 1.43157L2.75531 8.98568C2.75953 9.50736 2.97001 10.0067 3.34037 10.3745L14.6618 21.6712C14.8459 21.8541 14.9497 22.1032 14.9497 22.3625C14.9497 22.6221 14.8459 22.8712 14.6618 23.0539L1.88615 35.8044C0.793855 36.893 0.179688 38.3718 0.179688 39.9128C0.179688 41.4539 0.793855 42.9326 1.88615 44.0215L2.81225 44.9461V44.9459L14.8526 56.9644C15.0357 57.1478 15.1388 57.3966 15.1388 57.6558C15.1388 57.9147 15.0357 58.1638 14.8526 58.3472L3.32814 69.8526C2.95377 70.2265 2.74308 70.7335 2.74308 71.2623C2.74308 71.2707 2.74329 71.2798 2.74329 71.288L2.84495 78.8989C2.84473 78.8992 2.84473 78.8996 2.84473 78.9C2.84473 79.2436 3.12398 79.5223 3.46839 79.5223C3.62193 79.5223 3.77041 79.4657 3.88473 79.3632L21.5085 61.7714C22.5993 60.6827 23.2133 59.2036 23.2133 57.6629C23.2133 56.1221 22.5993 54.6429 21.5085 53.5541L20.5925 52.6217Z" fill="#173EB7"/>
<path d="M44.7398 21.6665C45.837 21.6665 46.6199 21.9236 47.0881 22.4377C47.5563 22.952 47.7906 23.7299 47.7906 24.7718V25.4328C47.7906 26.1808 47.67 26.785 47.4292 27.2459C47.1883 27.7067 46.7601 28.0303 46.1447 28.2175C46.827 28.4044 47.3121 28.7583 47.6 29.2793C47.8875 29.8 48.0315 30.448 48.0315 31.2225V32.4046C48.0315 33.4598 47.7704 34.2709 47.2486 34.8385C46.7268 35.4063 45.9174 35.6901 44.8202 35.6901H41.5889V21.6665H44.7398ZM44.3587 27.6164C44.9872 27.6164 45.459 27.4894 45.7733 27.2358C46.0878 26.9821 46.2451 26.488 46.2451 25.7535V24.932C46.2451 24.3042 46.1281 23.8402 45.8939 23.5396C45.6596 23.2391 45.2616 23.0888 44.6998 23.0888H43.1542V27.6164H44.3587ZM44.8202 34.2676C45.9306 34.2676 46.486 33.6332 46.486 32.3644V31.1223C46.486 30.3345 46.3286 29.7903 46.0144 29.4897C45.6999 29.189 45.2015 29.0389 44.519 29.0389H43.1542V34.2676H44.8202ZM59.6518 32.3844C59.6518 33.0257 59.7821 33.5229 60.043 33.877C60.3039 34.2309 60.7221 34.4078 61.2975 34.4078C61.8596 34.4078 62.2708 34.2309 62.5319 33.877C62.7926 33.5229 62.9232 33.0257 62.9232 32.3844V21.6665H64.3881V32.3042C64.3881 33.3728 64.134 34.2309 63.6257 34.8785C63.1172 35.5265 62.321 35.8503 61.2374 35.8503C60.1668 35.8503 59.3774 35.5265 58.8689 34.8785C58.3606 34.2309 58.1064 33.3728 58.1064 32.3042V21.6665H59.6518V32.3844ZM74.6438 35.6901V21.6665H76.2092V34.2676H80.2234V35.6901H74.6438ZM91.7032 32.8652L91.1614 35.6901H89.7162L92.4055 21.6665H94.6734L97.3627 35.6901H95.7974L95.2555 32.8652H91.7032ZM91.904 31.5229H95.0349L93.4491 23.4295L91.904 31.5229ZM109.686 29.5998L108.863 30.9821V35.6901H107.298V21.6665H108.863V28.4379L112.596 21.6665H114.181L110.629 28.0572L114.302 35.6901H112.696L109.686 29.5998Z" fill="#AB7C3C"/>
<path d="M44.7601 45.5366C45.8305 45.5366 46.6199 45.8539 47.1284 46.4882C47.6369 47.1225 47.8908 47.9741 47.8908 49.0423V49.4231H46.4058V48.9623C46.4058 48.3213 46.2786 47.8269 46.0245 47.4798C45.7701 47.1326 45.3622 46.9591 44.8002 46.9591C44.2383 46.9591 43.8302 47.1326 43.5758 47.4798C43.3217 47.8269 43.1945 48.3145 43.1945 48.9423C43.1945 49.4634 43.3116 49.9173 43.5459 50.3046C43.78 50.6918 44.0711 51.0493 44.4188 51.3764C44.7668 51.7036 45.1446 52.0242 45.5529 52.3381C45.961 52.6518 46.339 52.9958 46.6868 53.3699C47.0345 53.7438 47.3258 54.1678 47.5599 54.6419C47.794 55.116 47.9111 55.6804 47.9111 56.3347C47.9111 57.4034 47.6533 58.2547 47.1385 58.889C46.6233 59.5234 45.8237 59.8406 44.7401 59.8406C43.6562 59.8406 42.8602 59.5234 42.3517 58.889C41.8432 58.2547 41.5889 57.4034 41.5889 56.3347V55.5333H43.0543V56.4149C43.0543 57.0558 43.1878 57.5501 43.4556 57.8975C43.7233 58.2446 44.1379 58.4183 44.7 58.4183C45.2616 58.4183 45.6767 58.2446 45.9441 57.8975C46.2118 57.5501 46.3457 57.0558 46.3457 56.4149C46.3457 55.8939 46.2287 55.4434 45.9943 55.0625C45.7602 54.6819 45.4692 54.328 45.1214 54.0008C44.7734 53.6737 44.3988 53.353 43.9975 53.0391C43.5961 52.7253 43.2215 52.3815 42.8733 52.0076C42.5255 51.6335 42.2347 51.2095 42.0006 50.7354C41.7665 50.2613 41.6494 49.697 41.6494 49.0423C41.6494 47.9606 41.9033 47.1059 42.4118 46.4781C42.9203 45.8505 43.703 45.5366 44.7601 45.5366ZM59.4714 56.3947C59.4714 57.036 59.6016 57.5332 59.8627 57.8874C60.1236 58.2413 60.5416 58.4183 61.1172 58.4183C61.679 58.4183 62.0905 58.2413 62.3514 57.8874C62.6123 57.5332 62.7426 57.036 62.7426 56.3947V45.6768H64.2078V56.3145C64.2078 57.3831 63.9535 58.2413 63.4452 58.889C62.9367 59.5368 62.1407 59.8606 61.0568 59.8606C59.9865 59.8606 59.197 59.5368 58.6885 58.889C58.1802 58.2413 57.9259 57.3831 57.9259 56.3145V45.6768H59.4714V56.3947Z" fill="#AB7C3C"/>
<path fill-rule="evenodd" clip-rule="evenodd" d="M112.754 37.6977V36.4524H115.751V37.6977H112.754Z" fill="#AB7C3C"/>
</g>
<defs>
<clipPath id="clip0_369_54">
<rect width="116" height="80" fill="white"/>
</clipPath>
</defs>
</svg>
